<?xml version="1.0" encoding="UTF-8"?>
<svg id="Layer_1" data-name="Layer 1" xmlns="http://www.w3.org/2000/svg" viewBox="0 0 20.56 12.77">
  <defs>
    <style>
      .cls-1 {
        fill: #231f20;
      }

      .cls-2 {
        fill: #fff;
      }
    </style>
  </defs>
  <g>
    <path class="cls-2" d="M13.24,10.86l-.18.17-5.89-5.89.18-.17-.09-.09-4.88,4.87,3.02,3.02h6.11l1.82-1.82-.09-.09Z"/>
    <path class="cls-1" d="M11.96,0L2.21,9.75l3.02,3.02h.35l-3.02-3.02,4.61-4.61.18-.17-.09-.09L11.95.18l6.08,6.07-4.7,4.7-.09-.09-.18.17-1.48,1.49-.25.25h.35l6.52-6.52L11.96,0Z"/>
  </g>
  <polygon class="cls-1" points="18.03 6.25 13.33 10.95 13.24 10.86 13.06 11.03 7.17 5.14 7.35 4.97 7.26 4.88 11.95 .18 18.03 6.25"/>
  <rect class="cls-1" y="12.52" width="20.56" height=".25"/>
</svg>